<svg width="173" height="33" fill="none" xmlns="http://www.w3.org/2000/svg"><path d="m4.2 32.6 2.4-6.9h10.2l2.4 7h4.2L14 6.6H9.4L0 32.6h4.2Zm3.5-10.2 3.9-11h.2l3.9 11h-8ZM26.9 32.6h3.8V20.7c0-2.5 2-4.4 4.7-4.4a9 9 0 0 1 2 .2V13h-1.7a5.1 5.1 0 0 0-5 3.3h-.1v-3h-3.7v19.4ZM48.2 33c5.6 0 9.2-4 9.2-10 0-6.1-3.6-10.1-9.2-10.1-5.5 0-9.1 4-9.1 10S42.7 33 48.2 33Zm0-3.2c-3.6 0-5.3-3.1-5.3-6.9 0-3.7 1.7-6.9 5.3-6.9 3.6 0 5.3 3.2 5.3 7 0 3.7-1.7 6.8-5.3 6.8ZM74 24.5c0 3.3-2.4 5-4.5 5-2.4 0-4-1.8-4-4.4V13h-3.9v12.4c0 4.8 2.7 7.4 6.5 7.4 3 0 5-1.6 5.8-3.7h.3v3.4h3.7V13.1h-3.8v11.4ZM86.9 21c0-3 1.9-4.9 4.5-4.9s4.2 1.7 4.2 4.6v12h3.8V20.1c0-4.8-2.7-7.3-6.7-7.3-3 0-4.8 1.3-5.7 3.4h-.3V13H83v19.5H87V21ZM111.9 33a6 6 0 0 0 5.7-3.4h.3v3h3.7v-26h-3.8v9.7h-.2c-.7-1.2-2-3.4-5.7-3.4-4.7 0-8.2 3.7-8.2 10s3.4 10 8.2 10Zm.8-3.2c-3.4 0-5.2-3-5.2-7 0-3.8 1.8-6.7 5.2-6.7 3.4 0 5.2 2.7 5.2 6.8 0 4-1.9 6.9-5.2 6.9ZM126.6 1h2.7v7.8h1.1V1h2.7V.1h-6.5v1ZM135.6 4.9c0-1.2.8-1.8 1.8-1.8s1.5.6 1.5 1.6v4h1v-4c0-1.7-1-2.5-2.3-2.5-1 0-1.6.4-1.9 1.1V.1h-1v8.7h1v-4ZM144.5 9c1.3 0 2.3-.7 2.6-1.7l-1-.3c-.3.7-.8 1-1.6 1-1.2 0-2-.7-2-2.1h4.7v-.5c0-2.4-1.5-3.2-2.8-3.2-1.8 0-3 1.4-3 3.4s1.2 3.3 3 3.3Zm-2-4c0-1 .7-1.9 1.9-1.9 1 0 1.7.8 1.7 2h-3.7ZM158 .1v5.7c0 1.2-1 2.2-2.4 2.2-1.5 0-2.3-1-2.3-2.2V0h-1V6c0 1.7 1.2 3 3.3 3 2 0 3.4-1.3 3.4-3V0h-1ZM161.3 8.8c.4 0 .8-.3.8-.7a.8.8 0 0 0-1.6 0c0 .4.4.7.8.7ZM168.8 2.3h1c0-1.3-1.3-2.3-3-2.3-1.6 0-3 1-3 2.4 0 1.2 1 1.9 2.3 2.3l1 .3c1 .2 1.8.6 1.8 1.4 0 1-1 1.6-2.2 1.6-1 0-2-.5-2-1.5h-1c0 1.5 1.2 2.4 3 2.4 2 0 3.2-1 3.2-2.5 0-1.6-1.5-2.1-2.5-2.4l-.8-.2c-.7-.2-1.7-.5-1.7-1.4 0-.9.7-1.5 1.9-1.5 1 0 1.9.5 2 1.4ZM172.2 8.8c.5 0 .8-.3.8-.7a.8.8 0 0 0-1.5 0c0 .4.3.7.7.7Z" fill="#fff"/></svg>